<?xml version="1.0" encoding="UTF-8" standalone="no"?>
<!-- Created with Inkscape (http://www.inkscape.org/) -->

<svg
   xmlns:dc="http://purl.org/dc/elements/1.1/"
   xmlns:cc="http://creativecommons.org/ns#"
   xmlns:rdf="http://www.w3.org/1999/02/22-rdf-syntax-ns#"
   xmlns:svg="http://www.w3.org/2000/svg"
   xmlns="http://www.w3.org/2000/svg"
   xmlns:sodipodi="http://sodipodi.sourceforge.net/DTD/sodipodi-0.dtd"
   xmlns:inkscape="http://www.inkscape.org/namespaces/inkscape"
   width="1000mm"
   height="1000mm"
   viewBox="0 0 1000 1000"
   version="1.1"
   id="svg8"
   inkscape:version="0.92.3 (2405546, 2018-03-11)"
   sodipodi:docname="body-bg.svg">
  <defs
     id="defs2" />
  <sodipodi:namedview
     id="base"
     pagecolor="#ffffff"
     bordercolor="#666666"
     borderopacity="1.0"
     inkscape:pageopacity="0.0"
     inkscape:pageshadow="2"
     inkscape:zoom="0.175"
     inkscape:cx="2104.4448"
     inkscape:cy="1936.8083"
     inkscape:document-units="mm"
     inkscape:current-layer="layer1"
     showgrid="false"
     inkscape:window-width="1920"
     inkscape:window-height="1023"
     inkscape:window-x="0"
     inkscape:window-y="0"
     inkscape:window-maximized="1" />
  <metadata
     id="metadata5">
    <rdf:RDF>
      <cc:Work
         rdf:about="">
        <dc:format>image/svg+xml</dc:format>
        <dc:type
           rdf:resource="http://purl.org/dc/dcmitype/StillImage" />
        <dc:title />
      </cc:Work>
    </rdf:RDF>
  </metadata>
  <g
     inkscape:label="Layer 1"
     inkscape:groupmode="layer"
     id="layer1"
     transform="translate(0,703)">
    <path
       inkscape:connector-curvature="0"
       style="fill:#a8573b;fill-opacity:0.36507939;fill-rule:evenodd;stroke:none;stroke-width:2.07754397;stroke-linejoin:round;stroke-miterlimit:4;stroke-dasharray:none;stroke-opacity:1"
       d="M 951.42626,23.16752 A 99.128546,99.128546 0 0 0 828.20343,90.018591 L 1018.2773,146.39036 A 99.128546,99.128546 0 0 0 951.42626,23.16752 Z"
       id="path815-6-7-3" />
    <path
       inkscape:connector-curvature="0"
       style="fill:#a88e3b;fill-opacity:0.20634921;fill-rule:evenodd;stroke:none;stroke-width:1.74811721;stroke-linejoin:round;stroke-miterlimit:4;stroke-dasharray:none;stroke-opacity:1"
       d="m 563.38405,-147.64525 a 83.410175,83.410175 0 0 0 97.36263,66.59604 l -30.7666,-163.95866 a 83.410175,83.410175 0 0 0 -66.59603,97.36262 z"
       id="path815-6-7-3-5" />
    <path
       inkscape:connector-curvature="0"
       style="fill:#a8a33b;fill-opacity:0.3068783;fill-rule:evenodd;stroke:none;stroke-width:1.60223687;stroke-linejoin:round;stroke-miterlimit:4;stroke-dasharray:none;stroke-opacity:1"
       d="m 951.75027,-465.44388 a 76.449608,76.449608 0 0 0 -65.71679,85.85098 l 151.56782,-20.13421 a 76.449608,76.449608 0 0 0 -85.85103,-65.71677 z"
       id="path815-6-7-3-5-6" />
    <path
       inkscape:connector-curvature="0"
       style="fill:#a6a83b;fill-opacity:0.42328042;fill-rule:evenodd;stroke:none;stroke-width:3.70891738;stroke-linejoin:round;stroke-miterlimit:4;stroke-dasharray:none;stroke-opacity:1"
       d="m 732.56456,128.62433 a 179.23642,174.72902 0 0 0 -253.47701,0.86886 l 254.36829,246.23369 a 179.23642,174.72902 0 0 0 -0.89128,-247.10255 z"
       id="path815-6-7-3-5-6-2" />
    <path
       inkscape:connector-curvature="0"
       style="fill:#a9733b;fill-opacity:0.18518521;fill-rule:evenodd;stroke:none;stroke-width:2.73146725;stroke-linejoin:round;stroke-miterlimit:4;stroke-dasharray:none;stroke-opacity:1"
       d="m 795.52265,-599.19239 a 130.33003,130.33003 0 0 0 6.28275,184.20739 l 177.92474,-190.49014 a 130.33003,130.33003 0 0 0 -184.20749,6.28275 z"
       id="path815-6-7-3-5-9" />
    <path
       inkscape:connector-curvature="0"
       style="fill:#a8423b;fill-opacity:0.20105818;fill-rule:evenodd;stroke:none;stroke-width:1.03111827;stroke-linejoin:round;stroke-miterlimit:4;stroke-dasharray:none;stroke-opacity:1"
       d="m 818.03031,-115.8991 a 49.199078,49.199078 0 0 0 31.78162,-61.89526 l -93.67695,30.11364 a 49.199078,49.199078 0 0 0 61.89533,31.78162 z"
       id="path815-6-7-3-5-9-1-2" />
    <path
       inkscape:connector-curvature="0"
       style="fill:#a8723b;fill-opacity:0.2645503;fill-rule:evenodd;stroke:none;stroke-width:1.08033764;stroke-linejoin:round;stroke-miterlimit:4;stroke-dasharray:none;stroke-opacity:1"
       d="m 439.23511,188.531 a 52.208191,50.895271 0 0 0 -26.67239,67.11609 l 95.51988,-41.1145 A 52.208191,50.895271 0 0 0 439.23511,188.531 Z"
       id="path815-6-7-3-5-9-1-2-9" />
  </g>
</svg>
